Coordinates
version=1
nRows=13
nColumns=34
inDegrees=yes

Units are S.I. units (second, meters, Newtons, ...)
If the header above contains a line with 'inDegrees', this indicates whether rotational values are in degrees (yes) or radians (no).

endheader
time	pelvis_tilt	pelvis_list	pelvis_rotation	pelvis_tx	pelvis_ty	pelvis_tz	hip_flexion_r	hip_adduction_r	hip_rotation_r	knee_angle_r	ankle_angle_r	subtalar_angle_r	mtp_angle_r	hip_flexion_l	hip_adduction_l	hip_rotation_l	knee_angle_l	ankle_angle_l	subtalar_angle_l	mtp_angle_l	lumbar_extension	lumbar_bending	lumbar_rotation	arm_flex_r	arm_add_r	arm_rot_r	elbow_flex_r	pro_sup_r	arm_flex_l	arm_add_l	arm_rot_l	elbow_flex_l	pro_sup_l
      3.65000000	    -19.22026263	    -11.23444552	     10.97730151	      2.88596702	      0.87714989	     -0.14185516	      9.10279389	      7.82211943	    -10.38267113	     18.29306241	      7.88071130	    -31.08366407	      0.00000000	      0.91049323	    -12.30687690	     -8.03360642	      0.90736123	     20.46327835	     16.59815996	      0.00000000	     19.70076032	     14.13948744	      8.45639319	    -39.99376102	     10.36353077	    -40.23518761	     57.08763983	    104.36154054	      7.13826544	    -13.98237690	     43.34440591	     36.11993480	     92.07501143
      3.66666670	    -19.25958490	    -12.55545851	     10.97137253	      2.89568829	      0.87744739	     -0.14263949	     10.31987563	      9.14494465	    -11.38514684	     15.43059401	      7.90345767	    -30.89844260	      0.00000000	      0.31191292	    -13.89665315	     -7.79912812	      0.50291303	     20.48737438	     16.85223041	      0.00000000	     20.22864487	     15.48921954	      8.28985823	    -40.12028475	     10.17151182	    -40.26786673	     56.86801758	    104.37775121	      7.77564203	    -13.44194631	     43.38997776	     36.51943476	     91.95030736
      3.68333330	    -19.22673117	    -13.74978070	     11.31876514	      2.90187100	      0.87576255	     -0.14426243	     11.24658174	     10.16564791	    -13.62982525	     12.34239163	     11.94284180	    -25.63737130	      0.00000000	     -0.09528494	    -15.33265656	     -6.86161977	      0.40497726	     21.31196038	     17.06246328	      0.00000000	     20.52810211	     16.92893013	      7.82396783	    -40.65994225	     10.28559398	    -40.50680549	     58.59222206	    104.33498986	      8.56005491	    -13.50957563	     45.65117520	     37.52590600	     90.70572097
      3.70000000	    -18.97139832	    -14.99635036	     11.24739551	      2.90115204	      0.87490231	     -0.14473227	     12.53381174	     11.47027878	    -13.71764220	      9.14568318	     13.10412595	    -24.22459997	      0.00000000	     -0.58107015	    -16.86436449	     -6.06161793	      0.00000000	     22.10815548	     16.95776070	      0.00000000	     20.44424964	     18.45911187	      7.80400562	    -40.41318378	      9.83592599	    -40.49397811	     58.50775402	    104.34737785	      9.18165869	    -12.95257024	     45.79055997	     37.74963497	     90.49495153
      3.71666670	    -17.77507844	    -16.01720220	     12.63283761	      2.90213304	      0.87705428	     -0.14625050	     12.83357020	     12.11467654	    -18.11257859	      6.47705360	     17.79987267	    -15.75067377	      0.00000000	     -1.24394698	    -18.29007077	     -4.44218405	      0.00000000	     22.71973478	     16.73983734	      0.00000000	     19.37167345	     19.39712336	      7.04078223	    -39.83774180	      9.30036719	    -39.95469471	     58.98085966	    104.38369530	     10.85327311	    -11.92868805	     46.53295369	     36.56810142	     89.72960947
      3.73333330	    -17.38902955	    -16.96991996	     12.86516580	      2.91172948	      0.88024493	     -0.14506821	     14.10966449	     12.83169723	    -20.53775197	      4.93472911	     21.10172204	    -10.90460769	      0.00000000	     -1.44717288	    -19.54192652	     -3.97405147	      0.00000000	     23.08985052	     17.15353840	      0.00000000	     19.10961588	     20.61633440	      7.39772133	    -39.48799860	      8.83287998	    -39.85707445	     59.46949557	    104.33061712	     11.86880373	    -10.78853705	     47.08491014	     34.95818898	     89.01118664
      3.75000000	    -16.47521812	    -17.94322447	     13.64293169	      2.92783058	      0.88010481	     -0.14648217	     14.94192121	     13.61736892	    -22.11928436	      4.02295541	     22.58732021	     -8.73377113	      0.00000000	     -2.24828760	    -21.01274360	     -3.55378615	      0.00000000	     23.06772822	     17.05995867	      0.00000000	     18.60950020	     21.74217410	      7.17072712	    -39.00946554	      8.41845945	    -40.03498735	     60.43859132	    104.24591567	     12.91452648	     -9.58975153	     47.62729371	     33.03443751	     88.39646821
      3.76666670	    -15.95282446	    -19.00223634	     14.36100707	      2.94144100	      0.88250742	     -0.14626573	     15.59317320	     14.55220043	    -22.91774324	      3.41591861	     22.38403456	     -8.08701710	      0.00000000	     -2.81468913	    -22.59989181	     -2.97206273	      0.34742171	     23.45240058	     17.32202593	      0.00000000	     18.80837961	     22.87268372	      7.10515053	    -38.97517591	      8.23191737	    -40.24680684	     61.39622406	    104.21186939	     13.51461608	     -8.78679305	     47.85387203	     32.56095426	     88.24023869
      3.78333330	    -15.71676983	    -20.04262992	     15.01110734	      2.94687432	      0.87939351	     -0.14691137	     16.36033308	     15.40451855	    -23.87388685	      3.17093356	     22.90325272	     -7.15578306	      0.00000000	     -3.08086952	    -24.14746213	     -2.26127699	      0.87842571	     23.90437950	     17.13420692	      0.00000000	     19.28621553	     24.06351364	      6.84749783	    -39.36308207	      8.24662979	    -40.62578039	     63.64507317	    104.14899957	     14.12705929	     -7.99174667	     48.26924441	     31.77060971	     88.11238963
      3.80000000	    -15.54644991	    -21.01988473	     15.69940668	      2.94892150	      0.87536155	     -0.14697173	     17.19345279	     16.20662610	    -24.85379507	      2.94933534	     22.79520658	     -6.66319929	      0.00000000	     -3.32673082	    -25.59950965	     -1.73684444	      1.29788115	     23.56094283	     16.60114967	      0.00000000	     19.72061994	     25.16719857	      6.66936647	    -39.88574806	      8.35396040	    -41.11746180	     65.12157887	    104.08988014	     14.76784152	     -7.23716287	     48.78814202	     31.08727444	     88.05844541
      3.81666670	    -15.32992563	    -21.73908571	     16.24577370	      2.95764037	      0.87389280	     -0.14534748	     17.72731052	     16.88056160	    -25.15989180	      3.44554518	     22.62958944	     -6.74542524	      0.00000000	     -3.63219417	    -26.74277397	     -1.74076503	      1.69696202	     22.93934475	     16.38961320	      0.00000000	     19.93408927	     25.96002505	      6.45376297	    -40.16527049	      8.20026040	    -41.33528149	     65.35899035	    104.07105073	     14.96320056	     -6.86116433	     48.93651306	     30.94958616	     88.05880807
      3.83333330	    -15.21662149	    -22.20657281	     16.87487976	      2.96449160	      0.87074038	     -0.14472079	     18.11845059	     17.27106132	    -25.57604655	      3.91899310	     21.57535040	     -6.97813868	      0.00000000	     -3.47159175	    -27.53335840	     -0.63958444	      2.11815434	     21.77630403	     14.86601929	      0.00000000	     20.43598671	     26.64486152	      6.17802933	    -41.00250656	      8.59624379	    -42.13741455	     67.87020952	    103.96750726	     15.47870135	     -6.10165770	     49.70631433	     29.25169212	     88.07640593
      3.85000000	    -15.12057120	    -22.34730798	     17.31043467	      2.97829045	      0.87231184	     -0.14249966	     18.21711167	     17.51158243	    -25.12552658	      4.68759096	     20.48751499	     -8.59585003	      0.00000000	     -3.62037008	    -27.99336282	     -0.42987580	      2.23228276	     20.21312854	     13.99945761	      0.00000000	     21.00229470	     26.77757457	      7.82551541	    -41.94668399	     10.02874814	    -44.18805434	     67.81111856	    103.93425211	     17.32476124	     -3.55146559	     51.92141476	     22.62906530	     88.19173984
